<svg xmlns="http://www.w3.org/2000/svg" version="1.1" viewBox="-5.0 -10.0 110.0 135.0">
 <path d="m15.746 68.172 10.785-4.0625c1.3672-2.375 3.3359-3.9219 5.6016-4.8438 2.7305-9.832 8.7539-20.348 12.828-27.449 1.168-2.0391 2.1719-3.793 2.8789-5.1406-0.80078-0.089843-1.5195-0.45703-2.0625-0.99609-0.62891-0.62891-1.0195-1.4961-1.0195-2.4531 0-0.95312 0.39063-1.8203 1.0195-2.4492 0.63281-0.63281 1.5039-1.0234 2.4531-1.0234h0.58203c-0.3125-1.5508-0.82812-3.043-1.5273-4.4414-0.86719-1.7344-2.0273-3.3281-3.4375-4.7109-0.31641-0.3125-0.38281-0.78906-0.1875-1.1641 0.44922-0.96875 1.1016-1.8125 1.8945-2.4844l0.066406-0.050781c0.79688-0.65625 1.7305-1.1445 2.7461-1.4141 1.0391-0.27734 2.1211-0.3125 3.1602-0.125 0.82031 0.14844 1.6133 0.4375 2.3398 0.85938 0.72656-0.42188 1.5195-0.71094 2.3398-0.85938 1.0391-0.1875 2.1211-0.15234 3.1602 0.125 1.043 0.27734 2 0.78516 2.8086 1.4648 0.80859 0.67969 1.4688 1.5391 1.918 2.5234 0.17969 0.39063 0.082031 0.83984-0.20703 1.125-1.4102 1.3789-2.5664 2.9766-3.4375 4.7109-0.69922 1.3945-1.2148 2.8906-1.5273 4.4414h0.58203c0.95703 0 1.8281 0.39062 2.4531 1.0195 0.62891 0.62891 1.0195 1.4961 1.0195 2.4531 0 0.95313-0.39062 1.8203-1.0195 2.4492-0.54688 0.54688-1.2656 0.91016-2.0625 1 0.70703 1.3477 1.7148 3.1094 2.8828 5.1484 4.1641 7.2656 10.363 18.082 13 28.113l4.5938-2.6523c1.2148-0.6875 2.6016-0.82422 3.8555-0.48828 1.2656 0.33984 2.4102 1.1641 3.1133 2.3867l0.007812 0.015625 0.80078-0.46094c1.2188-0.70703 2.6211-0.84766 3.8867-0.51172 1.2734 0.33984 2.4141 1.1641 3.1211 2.3867l0.03125 0.058594c0.67578 1.207 0.80859 2.5703 0.47656 3.8125-0.33594 1.2656-1.1602 2.4102-2.3711 3.1289l-30.195 17.996c-1.0273 0.61328-2.0859 0.97266-3.1758 1.168-1.0508 0.18359-2.1406 0.21094-3.2734 0.16016l-27.762-1.2539-2.5625 0.83203 0.43359 0.75c0.41406 0.71484 0.49609 1.5352 0.29688 2.2734-0.19531 0.73828-0.67969 1.4062-1.3984 1.8203l-5.2188 3.0117c-0.71484 0.41406-1.5312 0.49609-2.2695 0.30078-0.74219-0.19531-1.4102-0.67969-1.8242-1.3945l-11.801-20.445c-0.41406-0.71484-0.5-1.5352-0.30078-2.2734 0.19531-0.73828 0.67969-1.4062 1.3945-1.8203l5.2188-3.0156c0.71484-0.41406 1.5352-0.49609 2.2734-0.29688 0.73828 0.19531 1.4062 0.67969 1.8203 1.3945l0.78516 1.3594zm37.125-29.625c0-0.55078 0.44922-1 1-1 0.55078 0 1 0.44922 1 1v0.30078c0.67969 0.17969 1.2891 0.53906 1.7734 1.0195 0.71094 0.71094 1.1484 1.6914 1.1484 2.7773 0 0.55078-0.44922 1-1 1s-1-0.44922-1-1c0-0.53125-0.21484-1.0117-0.5625-1.3594-0.10938-0.10938-0.22656-0.20312-0.35938-0.28125v4.7305c1.5312 0.91016 2.9258 1.9414 2.9258 4.2266 0 1.0859-0.4375 2.0664-1.1484 2.7773-0.48438 0.48438-1.0938 0.84375-1.7734 1.0195v0.30078c0 0.55078-0.44922 1-1 1s-1-0.44922-1-1v-0.30078c-0.67969-0.17969-1.2891-0.53906-1.7734-1.0195-0.71094-0.71094-1.1484-1.6914-1.1484-2.7773 0-0.55078 0.44922-1 1-1s1 0.44922 1 1c0 0.53125 0.21484 1.0117 0.5625 1.3594 0.10938 0.10938 0.22656 0.20313 0.35938 0.28125v-4.7305c-1.5312-0.91016-2.9258-1.9453-2.9258-4.2266 0-1.0859 0.4375-2.0664 1.1484-2.7773 0.48438-0.48438 1.0938-0.84375 1.7734-1.0195zm2 9.6055v3.4453c0.13281-0.082031 0.25391-0.17578 0.35938-0.28516 0.34766-0.34766 0.5625-0.82812 0.5625-1.3594 0-0.77344-0.37891-1.3359-0.92188-1.8008zm-2-3.707v-3.4492c-0.13281 0.082031-0.25391 0.17578-0.35938 0.28516-0.34766 0.34766-0.5625 0.82812-0.5625 1.3594 0 0.77344 0.37891 1.3359 0.92188 1.8047zm-2.0273-24.703h6.0547c0.33594-1.8594 0.93359-3.6562 1.7734-5.332 0.85938-1.7148 1.9688-3.3008 3.293-4.707-0.29297-0.46484-0.65625-0.88281-1.0742-1.2383-0.58203-0.49219-1.2734-0.85938-2.0312-1.0586-0.76172-0.20312-1.5508-0.23047-2.3008-0.09375s-1.4727 0.4375-2.1133 0.89844c-0.33594 0.23828-0.80078 0.25391-1.1562 0-0.64062-0.45703-1.3672-0.76172-2.1133-0.89844-0.75-0.13672-1.5391-0.10938-2.3008 0.09375-0.73438 0.19531-1.4102 0.54688-1.9805 1.0117l-0.050781 0.046875c-0.41797 0.35156-0.78125 0.76953-1.0742 1.2383 1.3281 1.4023 2.4336 2.9922 3.293 4.707 0.83984 1.6758 1.4414 3.4727 1.7734 5.332zm-0.78125 6.9492c-0.73828 1.5195-1.9336 3.6055-3.3711 6.1133-3.8477 6.7148-9.4648 16.516-12.273 25.75 3.0195-0.66797 6.3516-0.46484 9.3906 0.19531 1.0781 0.23438 2.0977 0.33984 3.0938 0.31641 0.99609-0.023437 2.0078-0.18359 3.0742-0.47266l11.59-3.1367c1.3242-0.35547 2.6797-0.13281 3.7852 0.50391 1.1133 0.64062 1.9766 1.707 2.3359 3.0352 0.35547 1.3281 0.13281 2.6836-0.50391 3.7891-0.64062 1.1133-1.7031 1.9805-3.0312 2.3359l-10.867 2.9102c1.5117 0.45703 2.8711 1.0547 4.1797 1.6289 3.7539 1.6523 7.0508 3.1016 12.402-0.37891l5.0742-2.9297c-1.0156-11.074-8.9297-24.879-13.895-33.547-1.4375-2.5117-2.6367-4.5977-3.3711-6.1172h-7.6172zm9.4453-4.9492h-11.277c-0.40625 0-0.77344 0.16797-1.043 0.42969-0.26562 0.26562-0.42969 0.63672-0.42969 1.043s0.16797 0.77344 0.43359 1.0391 0.63672 0.43359 1.0391 0.43359h11.277c0.40625 0 0.77734-0.16406 1.0391-0.42969 0.26953-0.26953 0.43359-0.63672 0.43359-1.043s-0.16797-0.77344-0.43359-1.0391-0.63672-0.43359-1.0391-0.43359zm17.324 43.523 8.793-5.0781-0.050781-0.097656c-0.42969-0.69922-1.1055-1.1758-1.8594-1.375-0.75391-0.19922-1.582-0.12891-2.3086 0.26562l-5.1406 2.9688c0.24219 1.1211 0.43359 2.2305 0.56641 3.3164zm-5.8789 5.6914c-6.2617 4.0703-10.02 2.418-14.297 0.53516-2.3398-1.0273-4.8555-2.1367-8.0391-2.2305-0.45703 0.019531-0.88672-0.27734-1.0078-0.74219-0.14062-0.53125 0.17578-1.082 0.70703-1.2227l15.316-4.1055c0.79688-0.21094 1.4375-0.73438 1.8203-1.3984 0.38281-0.66406 0.51562-1.4805 0.30078-2.2812-0.21484-0.79688-0.73438-1.4375-1.4023-1.8242-0.66406-0.38281-1.4805-0.51562-2.2773-0.30078l-11.59 3.1367c-1.1992 0.32422-2.3633 0.50391-3.543 0.53125-1.1758 0.027343-2.3516-0.089844-3.5664-0.35547-3.1719-0.69141-6.6562-0.84375-9.6289 0.09375-2.3281 0.73438-4.3516 2.1602-5.6406 4.5508-0.10938 0.21875-0.29688 0.40234-0.54297 0.49609l-10.82 4.0742 8.5547 14.816 3.1328-1.0156c0.10937-0.035156 0.23047-0.050782 0.35156-0.046875l27.945 1.2617c0.99219 0.042968 1.9375 0.019531 2.8477-0.13672 0.86719-0.15234 1.6992-0.4375 2.4961-0.91016l30.195-17.996c0.74609-0.44531 1.2539-1.1523 1.4648-1.9336 0.19922-0.75781 0.125-1.5859-0.27734-2.3164l-0.023437-0.042969c-0.42969-0.74219-1.1289-1.25-1.9023-1.457-0.77734-0.20703-1.6328-0.12109-2.375 0.30859-6.0664 3.5-12.133 7-18.199 10.504zm-57.723-3.1484c-0.13281-0.23828-0.35938-0.39844-0.60938-0.46484s-0.52344-0.039062-0.75781 0.09375l-5.2188 3.0156c-0.23828 0.13281-0.39844 0.35938-0.46484 0.60938-0.066407 0.24609-0.039063 0.52344 0.09375 0.75781l11.805 20.445c0.13672 0.23438 0.35938 0.39844 0.60938 0.46484 0.25 0.066406 0.52734 0.039062 0.76562-0.097657l5.2188-3.0117c0.23438-0.13281 0.39453-0.35938 0.46094-0.60938 0.066407-0.25 0.039063-0.52344-0.09375-0.75781-3.9336-6.8086-7.8711-13.629-11.805-20.441z"/>
<text x="0.0" y="117.5" font-size="5.0" font-weight="bold" font-family="Arbeit Regular, Helvetica, Arial-Unicode, Arial, Sans-serif" fill="#000000">Created by waqiahtul mukarromah</text><text x="0.0" y="122.5" font-size="5.0" font-weight="bold" font-family="Arbeit Regular, Helvetica, Arial-Unicode, Arial, Sans-serif" fill="#000000">from Noun Project</text></svg>