<svg xmlns="http://www.w3.org/2000/svg" xmlns:xlink="http://www.w3.org/1999/xlink" version="1.1" x="0px" y="0px" viewBox="0 0 100 125" style="enable-background:new 0 0 100 100;" xml:space="preserve"><g><path d="M15.19,53.71c0,8.26,6.72,14.97,14.97,14.97c8.26,0,14.97-6.72,14.97-14.97s-6.72-14.97-14.97-14.97   C21.9,38.74,15.19,45.45,15.19,53.71z M44.13,53.71c0,7.7-6.27,13.97-13.97,13.97s-13.97-6.27-13.97-13.97s6.27-13.97,13.97-13.97   S44.13,46.01,44.13,53.71z"/><path d="M28.75,33.36v2.38c0,0.38,0.31,0.68,0.68,0.68h1.45c0.38,0,0.68-0.31,0.68-0.68v-2.38c0.67-0.46,1.08-1.22,1.08-2.05   c0-1.37-1.12-2.49-2.49-2.49c-1.38,0-2.5,1.12-2.5,2.49C27.67,32.14,28.07,32.9,28.75,33.36z M30.16,29.82   c0.82,0,1.49,0.67,1.49,1.49c0,0.56-0.31,1.07-0.81,1.32l-0.27,0.14v2.66h-0.82v-2.66l-0.27-0.14c-0.5-0.25-0.81-0.76-0.81-1.32   C28.67,30.48,29.34,29.82,30.16,29.82z"/><path d="M69.84,47.94c-8.26,0-14.97,6.72-14.97,14.97s6.72,14.97,14.97,14.97s14.97-6.72,14.97-14.97S78.09,47.94,69.84,47.94z    M69.84,76.88c-7.7,0-13.97-6.27-13.97-13.97s6.27-13.97,13.97-13.97s13.97,6.27,13.97,13.97S77.54,76.88,69.84,76.88z"/><path d="M77.94,45.54v-6.71c0-2.01-1.88-3.64-4.2-3.64h-1.82c0.12-0.24,0.19-0.5,0.19-0.78v-7.96c0-0.98-0.8-1.78-1.78-1.78H70.3   v-3.92v-1.06c0-0.98-0.8-1.78-1.78-1.78h-7.96c-0.98,0-1.78,0.8-1.78,1.78v0.03h-3.05v-0.03c0-0.98-0.8-1.78-1.78-1.78H46   c-0.98,0-1.78,0.8-1.78,1.78v0.03h-3.05v-0.03c0-0.98-0.8-1.78-1.78-1.78h-7.96c-0.98,0-1.78,0.8-1.78,1.78v1.06v5.23h-3.42   c-2.31,0-4.2,1.63-4.2,3.64v6.71c-6.73,3.15-11.06,9.93-11.06,17.36c0,10.58,8.6,19.18,19.17,19.18c10.58,0,19.18-8.61,19.18-19.18   c0-7.44-4.34-14.22-11.08-17.36v-6.71c0-2.01-1.88-3.64-4.2-3.64h-3.41v-3.64c0.24,0.12,0.5,0.19,0.78,0.19h7.96   c0.98,0,1.78-0.8,1.78-1.78v-0.03h3.05v0.03c0,0.98,0.8,1.78,1.78,1.78h7.96c0.98,0,1.78-0.8,1.78-1.78v-0.03h3.05v0.03   c0,0.98,0.8,1.78,1.78,1.78h7.96c0.28,0,0.54-0.07,0.78-0.19v2.33h-0.03c-0.98,0-1.78,0.8-1.78,1.78v7.96   c0,0.28,0.07,0.54,0.19,0.78h-1.76c-2.31,0-4.2,1.63-4.2,3.64v6.71c-6.73,3.15-11.06,9.93-11.06,17.36   c0,10.58,8.6,19.18,19.17,19.18c10.58,0,19.18-8.61,19.18-19.18C89.02,55.47,84.68,48.69,77.94,45.54z M37.26,29.63v7.36l0.3,0.13   c6.55,2.93,10.78,9.44,10.78,16.59c0,10.03-8.16,18.18-18.18,18.18c-10.02,0-18.17-8.16-18.17-18.18c0-7.15,4.23-13.66,10.77-16.59   l0.3-0.13v-7.36c0-1.46,1.43-2.64,3.2-2.64h7.82C35.83,26.98,37.26,28.17,37.26,29.63z M40.17,20.75c0,0.43-0.35,0.78-0.78,0.78   h-7.96c-0.43,0-0.78-0.35-0.78-0.78v-1.06c0-0.43,0.35-0.78,0.78-0.78h7.96c0.43,0,0.78,0.35,0.78,0.78V20.75z M54.74,20.75   c0,0.43-0.35,0.78-0.78,0.78H46c-0.43,0-0.78-0.35-0.78-0.78v-1.06c0-0.43,0.35-0.78,0.78-0.78h7.96c0.43,0,0.78,0.35,0.78,0.78   V20.75z M68.53,21.53h-7.96c-0.43,0-0.78-0.35-0.78-0.78v-1.06c0-0.43,0.35-0.78,0.78-0.78h7.96c0.43,0,0.78,0.35,0.78,0.78v1.06   C69.3,21.18,68.95,21.53,68.53,21.53z M68.49,34.4v-7.96c0-0.43,0.35-0.78,0.78-0.78h1.06c0.43,0,0.78,0.35,0.78,0.78v7.96   c0,0.43-0.35,0.78-0.78,0.78h-1.06C68.84,35.18,68.49,34.83,68.49,34.4z M69.83,81.09c-10.02,0-18.17-8.16-18.17-18.18   c0-7.15,4.23-13.66,10.77-16.59l0.3-0.13v-7.36c0-1.46,1.43-2.64,3.2-2.64h3.35h1.06h3.41c1.76,0,3.2,1.19,3.2,2.64v7.36l0.3,0.13   c6.55,2.93,10.78,9.44,10.78,16.59C88.02,72.93,79.86,81.09,69.83,81.09z"/><path d="M68.43,42.57v2.37c0,0.38,0.31,0.68,0.68,0.68h1.45c0.38,0,0.68-0.31,0.68-0.68v-2.38c0.67-0.46,1.08-1.22,1.08-2.05   c0-1.37-1.12-2.49-2.49-2.49c-1.38,0-2.5,1.12-2.5,2.49C67.34,41.34,67.75,42.11,68.43,42.57z M69.84,39.02   c0.82,0,1.49,0.67,1.49,1.49c0,0.56-0.31,1.07-0.81,1.32l-0.27,0.14v2.66h-0.82v-2.64l-0.27-0.14c-0.5-0.25-0.81-0.76-0.81-1.33   C68.34,39.68,69.02,39.02,69.84,39.02z"/></g><text x="0" y="115" fill="#000000" font-size="5px" font-weight="bold" font-family="'Helvetica Neue', Helvetica, Arial-Unicode, Arial, Sans-serif">Created by Mustafizur Rahaman</text><text x="0" y="120" fill="#000000" font-size="5px" font-weight="bold" font-family="'Helvetica Neue', Helvetica, Arial-Unicode, Arial, Sans-serif">from the Noun Project</text></svg>