<svg xmlns="http://www.w3.org/2000/svg" version="1.1" viewBox="-5.0 -10.0 110.0 135.0">
 <path d="m33.852 48.949h32.289c0.28125 0 0.5-0.21875 0.5-0.5v-18.82c0.058594 0.03125 0.12891 0.050782 0.19922 0.050782 0.12891 0 0.26172-0.050782 0.35156-0.14844l2.4805-2.4805c0.089844-0.089843 0.14844-0.21875 0.14844-0.35156 0-0.12891-0.050781-0.26172-0.14844-0.35156l-19.32-19.336c-0.19141-0.19141-0.51953-0.19141-0.71094 0l-19.32 19.328c-0.089843 0.089844-0.14844 0.21875-0.14844 0.35156 0 0.12891 0.050781 0.26172 0.14844 0.35156l2.4805 2.4805c0.14844 0.14844 0.37109 0.17969 0.55078 0.10156v18.82c0 0.28516 0.22656 0.50391 0.5 0.50391zm21.617-1h-10.938v-10.23h10.93v10.23zm10.172 0h-9.1797v-10.73c0-0.28125-0.21875-0.5-0.5-0.5h-11.93c-0.28125 0-0.5 0.21875-0.5 0.5v10.73h-9.1797v-19.27l15.648-15.648 15.641 15.641zm-32.492-19.48-1.7695-1.7695 18.621-18.629 18.621 18.621-1.7695 1.7695-16.5-16.492c-0.10156-0.10156-0.23047-0.14844-0.35156-0.14844s-0.26172 0.050782-0.35156 0.14844z"/>
 <path d="m43.879 25.102c0 3.3711 2.7383 6.1211 6.1211 6.1211 3.3789 0 6.1211-2.7383 6.1211-6.1211 0-3.3789-2.7383-6.1211-6.1211-6.1211-3.3789 0-6.1211 2.75-6.1211 6.1211zm5.6211 5.0586c-2.4219-0.23828-4.3281-2.1484-4.5586-4.5586h4.5586zm0-5.5586h-4.5586c0.23828-2.4219 2.1484-4.3281 4.5586-4.5703zm1-4.5703c2.4219 0.23828 4.3281 2.1484 4.5703 4.5703h-4.5703zm0 5.5703h4.5703c-0.23828 2.4219-2.1484 4.3281-4.5703 4.5586z"/>
 <path d="m87.98 36.059c-1.7305-3.8516-3.6797-8.2188-4.5195-10.16-0.46875-1.1289-1.2305-2-2.2109-2.5312-1.6914-0.89844-3.3594-0.55859-4.8281 0.98828-1.6094 1.6797-1.9609 4.3516-0.83984 6.4805 1.6094 3.0586 2.3203 6.9297 2.6289 9.6406 0.23047 1.9883 0.089843 4-0.39063 5.9688l-0.64062 2.5547c-0.089844-0.21094-0.17188-0.42188-0.28906-0.60938-0.69141-1.1211-1.7617-1.8984-3.0195-2.2109-2.4609-0.60156-5.0117 0.80859-5.8008 3.2109l-3.6719 11.031v0.019531s0 0.011719-0.011719 0.011719c-0.10938 0.42969-0.73828 1.1406-1.4609 1.9492-2.1719 2.4297-5.8086 6.5117-4.3906 12.961 0 0.011719 0 0.070313-0.019531 0.23047l-3.1406-1.0117c-0.12891-0.039062-0.26172-0.03125-0.37891 0.03125-0.12109 0.058594-0.21094 0.17188-0.25 0.28906l-2.8984 9.0391c-0.078125 0.26172 0.058594 0.53906 0.32031 0.62891l26.559 8.5391c0.050782 0.019531 0.10156 0.019531 0.14844 0.019531 0.078125 0 0.16016-0.019531 0.23047-0.058594 0.12109-0.058593 0.21094-0.17187 0.25-0.28906l2.8984-9.0391c0.078125-0.26172-0.058594-0.53906-0.32031-0.62891l-2.8984-0.92969c0.69141-2.0508 1.6914-3.8984 2.6719-5.6992 1.1289-2.0703 2.2109-4.0195 2.7188-6.1406l5.2812-21.609c0.91016-3.6992 0.53906-7.6484-1.0312-11.129zm-6.8203 47.863-2.6016 8.0781-25.609-8.2305 2.6016-8.0781 3.2617 1.0508h0.011719l19.41 6.2383c0.011719 0 0.011719 0.011719 0.019531 0.011719h0.019532zm7.5781-35.41-5.2812 21.609c-0.48047 1.9883-1.5195 3.8906-2.6289 5.8984-1.0117 1.8281-2.0312 3.7383-2.75 5.8711l-18.602-5.9805c0.070313-0.42969 0.058594-0.62891 0.019532-0.75-1.3008-5.9492 1.9883-9.6406 4.1719-12.078 0.85938-0.96094 1.4805-1.6602 1.6602-2.3203 0-0.011719 0.011719-0.011719 0.011719-0.019531l3.6602-11.031c0.62891-1.9102 2.6602-3.0312 4.6211-2.5586 1.0117 0.25 1.8594 0.87109 2.4102 1.7617 0.53125 0.87891 0.69141 1.9102 0.46875 2.8594l-0.019531 0.089843v0.011719l-3.1484 9.7891c-0.078125 0.26172 0.058594 0.53906 0.32031 0.62891 0.050781 0.019531 0.10156 0.019531 0.14844 0.019531 0.21094 0 0.41016-0.12891 0.48047-0.35156l3.1719-9.8711c0-0.011719 0-0.03125 0.011719-0.039063l1.3086-5.3711c0.51172-2.0898 0.64844-4.2109 0.41016-6.3203-0.32031-2.7891-1.0586-6.8008-2.7383-9.9883-0.92187-1.75-0.64062-3.9414 0.67969-5.3203 1.1602-1.2188 2.3516-1.4805 3.6406-0.80078 0.76953 0.42188 1.3789 1.1211 1.7695 2.0391 0.83984 1.9609 2.8008 6.3281 4.5312 10.18l0.69922 1.5508c1.4844 3.2812 1.8242 7 0.97266 10.492z"/>
 <path d="m45.25 74.91c-0.039062-0.12891-0.12891-0.23047-0.25-0.28906s-0.26172-0.070313-0.37891-0.03125l-3.1406 1.0117c-0.019531-0.14844-0.019531-0.21875-0.011719-0.23047 1.4102-6.4492-2.2188-10.52-4.3984-12.961-0.73047-0.82031-1.3594-1.5195-1.4609-1.9492 0 0 0-0.011719-0.011719-0.011719v-0.019531l-3.6602-11.031c-0.80078-2.3984-3.3516-3.8086-5.8008-3.2109-1.2617 0.30859-2.3398 1.0898-3.0312 2.2188-0.12109 0.19922-0.19922 0.39844-0.28906 0.60938l-0.62891-2.5586c-0.48047-1.9688-0.62109-3.9805-0.39062-5.9688 0.30859-2.7109 1.0195-6.5781 2.6289-9.6406 1.1211-2.1289 0.76953-4.7891-0.83984-6.4688-1.4688-1.5391-3.1406-1.8906-4.8398-0.98828-0.98047 0.53125-1.7383 1.3984-2.2109 2.5195-0.83984 1.9609-2.8008 6.3281-4.5312 10.18l-0.69141 1.5391c-1.5703 3.4805-1.9414 7.4297-1.0312 11.129l5.2812 21.609c0.51172 2.1211 1.5898 4.0703 2.7188 6.1406 0.98047 1.7891 1.9805 3.6484 2.6719 5.6992l-2.8984 0.92969c-0.26172 0.078125-0.41016 0.37109-0.32031 0.62891l2.8984 9.0391c0.039063 0.12891 0.12891 0.23047 0.25 0.28906 0.070313 0.039062 0.14844 0.058594 0.23047 0.058594 0.050781 0 0.10156-0.011719 0.14844-0.019532l26.559-8.5391c0.26172-0.078125 0.41016-0.37109 0.32031-0.62891zm-26.078 1.1016c-1.1016-2.0117-2.1406-3.9102-2.6211-5.8984l-5.2812-21.609c-0.85156-3.4805-0.51172-7.2109 0.96875-10.48l0.69141-1.5391c1.7305-3.8594 3.6914-8.2383 4.5391-10.199 0.37891-0.91016 0.98828-1.6211 1.7617-2.0312 1.2891-0.67969 2.4805-0.42188 3.6406 0.80078 1.3203 1.3789 1.6016 3.5586 0.67969 5.3203-1.6797 3.1992-2.4219 7.1992-2.7383 9.9883-0.23828 2.1094-0.10156 4.2305 0.41016 6.3203l1.3281 5.4219v0.03125l3.1602 9.8398c0.070312 0.21094 0.26172 0.35156 0.48047 0.35156 0.050782 0 0.10156-0.011719 0.14844-0.019531 0.26172-0.078125 0.41016-0.37109 0.32031-0.62891l-3.1484-9.7812v-0.011719l-0.011719-0.050781c-0.23047-0.98828-0.070312-2.0195 0.46094-2.8984 0.55078-0.89062 1.3984-1.5195 2.4102-1.7617 1.9609-0.48047 3.9805 0.64844 4.6211 2.5586l3.6602 11.031c0 0.011719 0.011718 0.011719 0.011718 0.019531 0.19141 0.64844 0.80859 1.3594 1.6602 2.3203 2.1797 2.4414 5.4688 6.1289 4.1719 12.051-0.039063 0.14062-0.050782 0.35156 0.019531 0.78125l-18.602 5.9805c-0.71484-2.168-1.7422-4.0664-2.7422-5.9062zm2.2695 15.988-2.6016-8.0781 2.8789-0.92969h0.019531c0.011719 0 0.011719-0.011719 0.019531-0.011719l19.41-6.2383h0.011719l3.2617-1.0508 2.6016 8.0781z"/>
<text x="0.0" y="117.5" font-size="5.0" font-weight="bold" font-family="Arbeit Regular, Helvetica, Arial-Unicode, Arial, Sans-serif" fill="#000000">Created by homlah</text><text x="0.0" y="122.5" font-size="5.0" font-weight="bold" font-family="Arbeit Regular, Helvetica, Arial-Unicode, Arial, Sans-serif" fill="#000000">from Noun Project</text></svg>