<svg xmlns="http://www.w3.org/2000/svg" data-name="Layer 1" viewBox="-5.0 -10.0 110.0 135.0" x="0px" y="0px"><title>a</title><path d="M92.127,77.922c-1.952-1.534-5.235-3.585-9.037-5.96-2.257-1.409-4.589-2.867-6.939-4.4a18.53,18.53,0,0,0,.979-2.326,1.979,1.979,0,0,0,.632.1,2.2,2.2,0,0,0,.243-.014,1.985,1.985,0,0,0,1.333-.749l1.967-2.5a2,2,0,0,0-.336-2.806l-4.848-3.811V19.465a1.2,1.2,0,0,0-.34-.836c-.665-.682-1.945-2.022-3.429-3.573-1.9-1.985-4.258-4.454-6.117-6.371C62.66,5,62.624,5,62.013,5h-47.8a2.7,2.7,0,0,0-2.7,2.7v3.305H7.933a2.7,2.7,0,0,0-2.7,2.7V92.3a2.7,2.7,0,0,0,2.7,2.7H66.852a2.989,2.989,0,0,0,2.986-2.985V88.994h3.3a2.989,2.989,0,0,0,2.986-2.985V78.918l1.086,1.069c3.122,3.077,5.819,5.735,7.655,7.178a6.9,6.9,0,0,0,4.248,1.5,5.646,5.646,0,0,0,4.5-2.1C95.615,84.017,94.949,80.139,92.127,77.922ZM71.948,69.729a17.9,17.9,0,0,1-4.5,4.127L59.99,67.994a17.888,17.888,0,0,1,2.946-5.347A17.622,17.622,0,0,1,67.984,58.2l7.095,5.576A17.609,17.609,0,0,1,71.948,69.729Zm-5.021,6.764-1.476,1.878L56.074,71l1.476-1.879.315.248.013.01,8.734,6.865.007.005ZM77.7,62.786l-9.377-7.37L69.8,53.538l9.377,7.37ZM70.621,16.711l1.408,1.473H63.242a.31.31,0,0,1-.3-.306V8.736C64.937,10.766,68.328,14.313,70.621,16.711ZM22.758,7.4H28.8v7.322l-2.136-2.354a1.2,1.2,0,0,0-1.774,0l-2.135,2.354Zm44.684,84.62a.59.59,0,0,1-.59.59H7.933a.31.31,0,0,1-.306-.306V13.707a.31.31,0,0,1,.306-.306h3.582V86.293a2.7,2.7,0,0,0,2.7,2.7H67.442Zm6.283-6.006a.59.59,0,0,1-.59.59H14.216a.309.309,0,0,1-.3-.306V7.7a.309.309,0,0,1,.3-.306h6.146V17.82a1.2,1.2,0,0,0,2.085.8l3.333-3.674,3.334,3.674a1.2,1.2,0,0,0,2.085-.8V7.4H60.542V17.878a2.7,2.7,0,0,0,2.7,2.7H73.725v33l-2.757-2.168a2,2,0,0,0-2.806.337l-1.967,2.5a2,2,0,0,0-.117,2.3,21.323,21.323,0,0,0-8.142,10.072,2,2,0,0,0-2.024.71l-1.966,2.5a2,2,0,0,0,.336,2.806l10,7.86a1.981,1.981,0,0,0,1.23.427,2.006,2.006,0,0,0,.243-.015,1.986,1.986,0,0,0,1.333-.748l1.967-2.5a2,2,0,0,0,.211-2.134,18.712,18.712,0,0,0,1.86-1.447c.874.827,1.745,1.665,2.6,2.494Zm18-.924c-1.187,1.51-3.6,1.6-5.386.2-1.731-1.36-4.384-3.974-7.455-7-1.853-1.826-3.944-3.885-6.056-5.886q.514-.57,1-1.186c.4-.509.774-1.033,1.123-1.567,2.331,1.517,4.636,2.958,6.867,4.352,3.743,2.338,6.975,4.357,8.826,5.811C92.43,81.207,92.916,83.575,91.729,85.085ZM52.234,78.54a1.2,1.2,0,0,1-1.2,1.2H22.444a1.2,1.2,0,0,1,0-2.4H51.036A1.2,1.2,0,0,1,52.234,78.54ZM21.246,71.91a1.2,1.2,0,0,1,1.2-1.2H48.076a1.2,1.2,0,1,1,0,2.4H22.444A1.2,1.2,0,0,1,21.246,71.91Zm2.089-37.8a6.257,6.257,0,0,0,3.247,5.305V57.94a2.455,2.455,0,0,0,2.491,2.411H57.259A2.455,2.455,0,0,0,59.75,57.94V38.8a6.089,6.089,0,0,0,2.36-4.69v-.052c0-.032,0-.064-.005-.1s-.006-.039-.009-.059,0-.038-.008-.056c-.007-.033-.015-.064-.024-.1l0-.018,0,0,0-.011L59.611,25.6a1.2,1.2,0,0,0-1.146-.853H26.98a1.2,1.2,0,0,0-1.147.853L23.39,33.718l0,.011v0l-.005.018c-.008.032-.017.063-.023.1,0,.018-.006.037-.009.055s-.006.04-.008.06,0,.063,0,.095v.052Zm2.616,1.167h9.262A4.8,4.8,0,0,1,30.626,38.1,4.894,4.894,0,0,1,25.951,35.276ZM40.542,57.955H34.648v-12.5h5.894Zm16.813-.033a.14.14,0,0,1-.1.033H42.938v-13.7a1.2,1.2,0,0,0-1.2-1.2H33.45a1.2,1.2,0,0,0-1.2,1.2v13.7H29.073a.14.14,0,0,1-.1-.033V40.327a8.256,8.256,0,0,0,1.649.167,7.4,7.4,0,0,0,6.028-2.863,7.593,7.593,0,0,0,6.068,2.863,7.4,7.4,0,0,0,6.029-2.863,7.591,7.591,0,0,0,6.068,2.863,8.168,8.168,0,0,0,2.536-.4ZM46.809,27.14l.589,5.741H37.97l.654-5.741Zm.5,8.136A4.8,4.8,0,0,1,42.722,38.1a4.893,4.893,0,0,1-4.674-2.823ZM54.819,38.1a4.893,4.893,0,0,1-4.674-2.823h9.348A4.893,4.893,0,0,1,54.819,38.1ZM59.3,32.881h-9.5l-.589-5.741h8.357ZM27.87,27.14h8.343l-.654,5.741H26.143ZM53.7,43.058H46.742a1.2,1.2,0,0,0-1.2,1.2V50a1.2,1.2,0,0,0,1.2,1.2H53.7A1.2,1.2,0,0,0,54.9,50V44.256A1.2,1.2,0,0,0,53.7,43.058ZM52.5,48.8H47.94V45.453H52.5Z"/><text x="0.0" y="117.5" font-size="5.0" font-weight="bold" font-family="Arbeit Regular, Helvetica, Arial-Unicode, Arial, Sans-serif" fill="#000000">Created by Baim Icon</text><text x="0.0" y="122.5" font-size="5.0" font-weight="bold" font-family="Arbeit Regular, Helvetica, Arial-Unicode, Arial, Sans-serif" fill="#000000">from Noun Project</text></svg>