<svg xmlns="http://www.w3.org/2000/svg" xmlns:xlink="http://www.w3.org/1999/xlink" version="1.1" x="0px" y="0px" viewBox="0 0 100 125" style="enable-background:new 0 0 100 100;" xml:space="preserve"><path d="M86,29H14c-3,0-5.5,2.5-5.5,5.5v46c0,3,2.5,5.5,5.5,5.5h29.4c-0.3,2.3-1.2,5-4.4,5h-4c-0.8,0-1.5,0.7-1.5,1.5S34.2,94,35,94  h30c0.8,0,1.5-0.7,1.5-1.5S65.8,91,65,91h-4c-3.2,0-4.2-2.7-4.4-5H86c3,0,5.5-2.5,5.5-5.5v-46C91.5,31.5,89,29,86,29z M14,32h72  c1.4,0,2.5,1.1,2.5,2.5V76h-77V34.5C11.5,33.1,12.6,32,14,32z M55.2,91H44.8c0.9-1.3,1.4-3,1.6-5h7.2C53.8,88,54.3,89.7,55.2,91z   M86,83H14c-1.4,0-2.5-1.1-2.5-2.5V79h77v1.5C88.5,81.9,87.4,83,86,83z"/><g><path d="M62,49h-3.5v-2.5c0-4.7-3.8-8.5-8.5-8.5c-4.7,0-8.5,3.8-8.5,8.5V49H38c-0.8,0-1.5,0.7-1.5,1.5v18c0,0.8,0.7,1.5,1.5,1.5h24   c0.8,0,1.5-0.7,1.5-1.5v-18C63.5,49.7,62.8,49,62,49z M44.5,46.5c0-3,2.5-5.5,5.5-5.5c3,0,5.5,2.5,5.5,5.5V49h-11V46.5z M60.5,67   h-21V52h21V67z"/><path d="M50,54.5c-1.7,0-3,1.3-3,3c0,1.1,0.6,2.1,1.5,2.6v2.4c0,0.8,0.7,1.5,1.5,1.5c0.8,0,1.5-0.7,1.5-1.5v-2.4   c0.9-0.5,1.5-1.5,1.5-2.6C53,55.8,51.7,54.5,50,54.5z"/></g><text x="0" y="115" fill="#000000" font-size="5px" font-weight="bold" font-family="'Helvetica Neue', Helvetica, Arial-Unicode, Arial, Sans-serif">Created by Till Teenck</text><text x="0" y="120" fill="#000000" font-size="5px" font-weight="bold" font-family="'Helvetica Neue', Helvetica, Arial-Unicode, Arial, Sans-serif">from the Noun Project</text></svg>