<svg xmlns="http://www.w3.org/2000/svg" version="1.1" viewBox="-5.0 -10.0 110.0 135.0">
 <path d="m31.379 44.008c5.0977 0 9.2461-4.1484 9.2461-9.2422v-1.6953c0-0.070312-0.058594-0.11719-0.074219-0.17969-0.015625-0.066406 0.011719-0.13672-0.023437-0.19531l-7.8203-14.074h10.191c0.54687 1.5664 1.5742 2.9102 2.9336 3.8164v23.402h-5.9883c-2.2969 0-4.168 1.8672-4.168 4.1641 0 0.42969 0.34766 0.78125 0.78125 0.78125 0.43359 0 0.78125-0.35156 0.78125-0.78125 0-1.4336 1.168-2.6016 2.6055-2.6016h6.7695c0.43359 0 0.78125-0.35156 0.78125-0.78125v-23.41c0.81641 0.30078 1.6875 0.49219 2.6055 0.49219s1.7891-0.1875 2.6055-0.49219v23.41c0 0.42969 0.34766 0.78125 0.78125 0.78125h6.7695c1.4375 0 2.6055 1.168 2.6055 2.6016 0 0.42969 0.34766 0.78125 0.78125 0.78125 0.43359 0 0.78125-0.35156 0.78125-0.78125 0-2.2969-1.8711-4.1641-4.168-4.1641h-5.9883v-23.402c1.3594-0.90625 2.3867-2.2461 2.9336-3.8164h10.191l-7.8203 14.074c-0.035156 0.0625-0.007812 0.12891-0.023437 0.19531-0.019531 0.066406-0.074219 0.10938-0.074219 0.17969v1.6953c0 5.0977 4.1484 9.2422 9.2461 9.2422s9.2422-4.1484 9.2422-9.2422v-1.6953c0-0.070312-0.058593-0.11719-0.074219-0.17969-0.015624-0.066406 0.011719-0.13672-0.023437-0.19531l-7.8203-14.074h0.36328c1.3633 0 2.4727-1.1094 2.4727-2.4727 0-1.3633-1.1094-2.4766-2.4727-2.4766h-13.211c-1.0312-2.9453-3.8086-5.0781-7.1016-5.0781-3.293 0-6.0703 2.1328-7.1016 5.0781h-13.211c-1.3633 0-2.4727 1.1094-2.4727 2.4766 0 1.3633 1.1094 2.4727 2.4727 2.4727h0.36328l-7.8203 14.074c-0.035156 0.0625-0.007812 0.12891-0.023437 0.19531-0.019531 0.066406-0.074219 0.10938-0.074219 0.17969v1.6953c0 5.0977 4.1484 9.2422 9.2422 9.2422zm44.922-9.2422c0 4.2344-3.4453 7.6797-7.6797 7.6797s-7.6836-3.4453-7.6836-7.6797v-0.91406h15.363zm-0.54688-2.4766h-14.27l7.1367-12.844 7.1367 12.844zm-5.4414-17.055c0.50391 0 0.91016 0.41016 0.91016 0.91406 0 0.5-0.41016 0.91016-0.91016 0.91016h-12.852c0.035156-0.30078 0.09375-0.59766 0.09375-0.91016s-0.054688-0.60938-0.09375-0.91406zm-20.312-5.0781c3.3008 0 5.9883 2.6875 5.9883 5.9922 0 3.3008-2.6875 5.9883-5.9883 5.9883s-5.9883-2.6875-5.9883-5.9883c0-3.3008 2.6875-5.9922 5.9883-5.9922zm-20.312 6.8984c-0.50391 0-0.91016-0.41016-0.91016-0.91016 0-0.50391 0.41016-0.91406 0.91016-0.91406h12.852c-0.035156 0.30078-0.09375 0.60156-0.09375 0.91406s0.054688 0.60938 0.09375 0.91016zm1.6914 2.3906 7.1367 12.844h-14.27l7.1367-12.844zm-7.6797 14.406h15.363v0.91406c0 4.2344-3.4453 7.6797-7.6836 7.6797-4.2344 0-7.6797-3.4453-7.6797-7.6797zm26.301-13.539c2.2969 0 4.168-1.8672 4.168-4.1641 0-2.2969-1.8711-4.168-4.168-4.168s-4.168 1.8711-4.168 4.168c0 2.2969 1.8711 4.1641 4.168 4.1641zm0-6.7734c1.4375 0 2.6055 1.168 2.6055 2.6055 0 1.4336-1.168 2.6016-2.6055 2.6016s-2.6055-1.168-2.6055-2.6016c0-1.4375 1.168-2.6055 2.6055-2.6055zm-32.16 57.555c-5.0977 0-9.2461-4.1484-9.2461-9.2422 0-2.4609 0.95703-4.7852 2.6992-6.543 1.7656-1.7461 4.0859-2.7031 6.5469-2.7031h62.629c2.2969 0 4.168 1.8711 4.168 4.168v10.156c0 2.2969-1.8711 4.1641-4.168 4.1641h-40.93c-0.43359 0-0.78125-0.35156-0.78125-0.78125s0.34766-0.78125 0.78125-0.78125h40.93c1.1602 0 2.1094-0.77344 2.4453-1.8203h-43.07c-0.43359 0-0.78125-0.35156-0.78125-0.78125 0-0.42969 0.34766-0.78125 0.78125-0.78125h43.23v-8.5938h-65.234c-2.3711 0-4.2969 1.9297-4.2969 4.2969 0 1.1445 0.44531 2.2227 1.2617 3.0352 0.81641 0.8125 1.8906 1.2617 3.0352 1.2617h5.0781c0.43359 0 0.78125 0.35156 0.78125 0.78125 0 0.42969-0.34766 0.78125-0.78125 0.78125h-5.0781c-1.5625 0-3.0312-0.60938-4.1406-1.7188-1.1094-1.1094-1.7188-2.582-1.7188-4.1406 0-3.2305 2.6289-5.8594 5.8594-5.8594h65.078c-0.33594-1.0508-1.2891-1.8242-2.4453-1.8242l-62.633-0.003907c-2.043 0-3.9766 0.79688-5.4414 2.2461-1.4414 1.457-2.2383 3.3906-2.2383 5.4375 0 4.2344 3.4453 7.6797 7.6836 7.6797h5.3828c0.43359 0 0.78125 0.35156 0.78125 0.78125 0 0.42969-0.34766 0.78125-0.78125 0.78125h-5.3828zm43.402 19.531c0 0.42969-0.34766 0.78125-0.78125 0.78125h-40.93c-2.2969 0-4.168-1.8672-4.168-4.1641v-13.543c0-0.42969 0.34766-0.84766 0.78125-0.84766 0.074219 0 0.12109 0.050782 0.19141 0.066407h64.133c4.1641 0 7.5508 3.3867 7.5508 7.5547 0 2-0.78125 3.8984-2.2031 5.3398-1.4492 1.4297-3.3477 2.2109-5.3477 2.2109h-3.3867c-0.43359 0-0.78125-0.35156-0.78125-0.78125 0-0.42969 0.34766-0.78125 0.78125-0.78125h3.3867c1.5859 0 3.0938-0.62109 4.2422-1.7539 1.125-1.1406 1.75-2.6484 1.75-4.2344 0-3.3008-2.6875-5.9922-5.9883-5.9922l-63.547-0.003907v11.98h43.23c0.43359 0 0.78125 0.35156 0.78125 0.78125 0 0.42969-0.34766 0.78125-0.78125 0.78125l-43.07 0.003907c0.33594 1.0469 1.2891 1.8203 2.4453 1.8203h40.93c0.43359 0 0.78125 0.35156 0.78125 0.78125zm30.164-10.156c0 2.9375-1.1406 5.6836-3.2109 7.7344-2.0508 2.0664-4.793 3.2031-7.7266 3.2031h-3.6914c-0.43359 0-0.78125-0.35156-0.78125-0.78125s0.34766-0.78125 0.78125-0.78125h3.6914c2.5117 0 4.8633-0.97656 6.625-2.7461 1.7773-1.7617 2.75-4.1133 2.75-6.6289 0-3.4102-1.8555-6.5547-4.8438-8.2031-0.37891-0.20703-0.51562-0.68359-0.30859-1.0625 0.21094-0.375 0.6875-0.51953 1.0586-0.30469 3.4883 1.9219 5.6523 5.5898 5.6523 9.5703zm-65.105-21.094c-0.43359 0-0.78125 0.35156-0.78125 0.78125v8.4609c0 1.0039 0.60156 1.9023 1.5273 2.2852 0.30859 0.12891 0.62891 0.19141 0.94922 0.19141 0.64062 0 1.2695-0.25391 1.75-0.72656l1.6367-1.6406 1.6367 1.6406c0.69531 0.69141 1.7578 0.92578 2.6953 0.53516 0.92969-0.38281 1.5273-1.2812 1.5273-2.2852v-8.4609c0-0.42969-0.34766-0.78125-0.78125-0.78125zm9.375 9.2422c0 0.37109-0.22266 0.70312-0.55859 0.84375-0.35156 0.13281-0.74609 0.058593-0.99609-0.19531l-2.1914-2.1914c-0.29297-0.29297-0.8125-0.29297-1.1055 0l-2.1875 2.1875c-0.26562 0.26172-0.64844 0.34375-0.99609 0.20312-0.34375-0.14453-0.5625-0.47656-0.5625-0.84375v-7.6797h8.5938v7.6797zm38.023 11.07h-10.156c-0.43359 0-0.78125 0.35156-0.78125 0.78125v8.4609c0 1.0039 0.59766 1.9023 1.5273 2.2891 0.30859 0.125 0.62891 0.1875 0.94531 0.1875 0.64453 0 1.2734-0.25 1.75-0.72266l1.6367-1.6406 1.6367 1.6406c0.69531 0.69141 1.7578 0.92578 2.6953 0.53516 0.92969-0.38281 1.5273-1.2812 1.5273-2.2852v-8.4609c0-0.42969-0.34766-0.78125-0.78125-0.78125zm-0.78125 9.2422c0 0.37109-0.22266 0.70312-0.55859 0.84375-0.35156 0.13672-0.74219 0.058593-0.99609-0.19531l-2.1875-2.1914c-0.14844-0.14844-0.34375-0.23047-0.55078-0.23047s-0.40625 0.082031-0.55078 0.23047l-2.1875 2.1914c-0.25781 0.26172-0.64844 0.34375-0.99609 0.19922-0.33984-0.14453-0.5625-0.47266-0.5625-0.84375v-7.6797h8.5938v7.6797z"/>
<text x="0.0" y="117.5" font-size="5.0" font-weight="bold" font-family="Arbeit Regular, Helvetica, Arial-Unicode, Arial, Sans-serif" fill="#000000">Created by kusuma potter</text><text x="0.0" y="122.5" font-size="5.0" font-weight="bold" font-family="Arbeit Regular, Helvetica, Arial-Unicode, Arial, Sans-serif" fill="#000000">from Noun Project</text></svg>