<svg xmlns="http://www.w3.org/2000/svg" version="1.1" viewBox="-5.0 -10.0 110.0 135.0">
 <path d="m95.375 30.188v-11.922c0-0.70312-0.48438-1.3281-1.1719-1.5156l-43.797-11.656c-0.26562-0.0625-0.54688-0.0625-0.8125 0l-43.797 11.656c-0.6875 0.1875-1.1719 0.8125-1.1719 1.5156v11.922c0 0.85938 0.70312 1.5625 1.5625 1.5625h5.9531c-0.015625 0.09375-0.03125 0.1875-0.03125 0.28125v42.609h-2.7969c-0.85938 0-1.5625 0.70312-1.5625 1.5625v6.5156h-1.5156c-0.85938 0-1.5625 0.6875-1.5625 1.5625v9.1094c0 0.85938 0.70312 1.5625 1.5625 1.5625h87.531c0.85938 0 1.5625-0.70312 1.5625-1.5625v-9.1094c0-0.875-0.70312-1.5625-1.5625-1.5625h-1.5156v-6.5156c0-0.85938-0.70312-1.5625-1.5625-1.5625h-2.7969v-42.609c0-0.09375-0.015625-0.1875-0.03125-0.28125h5.9531c0.85938 0 1.5625-0.70312 1.5625-1.5625zm-84.5 47.578h18.875v4.9531h-18.875zm4.3281-46.016h3.4219v42.891h-3.3906v-42.609c0-0.09375-0.015625-0.1875-0.03125-0.28125zm6.5469 42.891v-42.891h3.375v42.891zm23.141-42.891h3.4219v42.891h-3.3906v-42.609c0-0.09375-0.015625-0.1875-0.03125-0.28125zm14.547 46.016v4.9531h-18.875v-4.9531zm-8-3.125v-42.891h3.375v42.891zm15.688 1.5625v6.5156h-4.5625v-6.5156c0-0.85938-0.70312-1.5625-1.5625-1.5625h-3.0625v-42.891h13.812v42.891h-3.0625c-0.85938 0-1.5625 0.70312-1.5625 1.5625zm-25.328-44.172v42.609h-2.7969c-0.85938 0-1.5625 0.70312-1.5625 1.5625v6.5156h-4.5625v-6.5156c0-0.85938-0.70312-1.5625-1.5625-1.5625h-3.0625v-42.891h13.578c-0.015625 0.09375-0.03125 0.1875-0.03125 0.28125zm50.406 59.797h-84.406v-5.9844h84.406zm-3.0781-14.062v4.9531h-18.875v-4.9531zm-14.25-3.125v-42.891h3.375v42.891zm6.5 0v-42.891h3.4219c-0.015625 0.09375-0.03125 0.1875-0.03125 0.28125v42.609zm10.875-46.016h-84.5v-9.1562l42.25-11.25 42.25 11.25z"/>
<text x="0.0" y="117.5" font-size="5.0" font-weight="bold" font-family="Arbeit Regular, Helvetica, Arial-Unicode, Arial, Sans-serif" fill="#000000">Created by rizal2109</text><text x="0.0" y="122.5" font-size="5.0" font-weight="bold" font-family="Arbeit Regular, Helvetica, Arial-Unicode, Arial, Sans-serif" fill="#000000">from Noun Project</text></svg>