<svg xmlns="http://www.w3.org/2000/svg" version="1.1" viewBox="-5.0 -10.0 110.0 135.0">
 <g>
  <path d="m99.52 48.43c-0.35156-0.39063-0.85938-0.62109-1.3906-0.62109h-1.6914l-6.5195-15.691c2.0391-0.57031 4.0586-2.0391 6.0508-4.8789 0.19141 0.039063 0.39062 0.058594 0.60156 0.058594 1.6797 0 3.0391-1.3594 3.0391-3.0391 0-1.6797-1.3594-3.0391-3.0391-3.0391-1.6797 0-3.0391 1.3594-3.0391 3.0391 0 0.60938 0.17969 1.1719 0.48828 1.6406-4.5781 6.5312-8.8789 4.1094-14.781 0.78125-2.4297-1.3711-4.9297-2.7812-7.6602-3.6406v-4.3281h1.5c0.80078 0 1.4688-0.33984 1.7891-0.89844 0.26172-0.44922 0.25-0.98828-0.011719-1.4414l-6.2383-10.5c-0.32031-0.55078-0.98828-0.87109-1.7812-0.87109-0.78906 0-1.4492 0.32812-1.7695 0.87109l-6.2383 10.512c-0.26953 0.44922-0.26953 0.98047-0.011719 1.4414 0.32031 0.55859 0.98828 0.89844 1.7891 0.89844h1.5v4.25c-2.8281 0.85938-5.4102 2.3086-7.9219 3.7188-5.8086 3.2695-10.07 5.6719-14.578-0.48828 0.42969-0.53125 0.69922-1.1992 0.69922-1.9297 0-1.6797-1.3594-3.0391-3.0391-3.0391s-3.0391 1.3594-3.0391 3.0391c0 1.6797 1.3594 3.0391 3.0391 3.0391 0.070313 0 0.14062-0.011719 0.21094-0.011719 0.26172 0.37109 0.53125 0.71875 0.78906 1.0508h-19.426-0.03125-8.957c-5.4297-0.011718-9.8516 4.4102-9.8516 9.8477v5.8516c0 0.64844 0.53125 1.1914 1.1914 1.1914h13.32v42.352 0.039062c0.019531 4.0703 3.3281 7.3711 7.3984 7.3711h0.51953l42.469-0.003906c6.1016 0 11.07-4.9688 11.07-11.07v-2.5508c0-0.64844-0.53125-1.1914-1.1914-1.1914h-6.9297v-7.5312h12.969c1.1992 0 1.1992-1.2383 1.1992-1.6484 0-2.9688-2.3594-5.4805-5.2109-5.6211-1.3516-1.3516-3.1992-2.3711-5.3203-2.9609 0.039063-0.12109 0.058594-0.23828 0.058594-0.37109v-36.5c2.2383 0.80859 4.3984 2.0312 6.4883 3.2109 2.6992 1.5195 5.4492 3.0703 8.1914 3.5195l-6.3984 15.539h-2.4805c-0.53125 0-1.0312 0.23047-1.3906 0.62109-0.35156 0.39063-0.53125 0.92188-0.46875 1.4492 0.57812 5.4414 5.8398 9.5508 12.238 9.5508 6.3984 0 11.66-4.1016 12.238-9.5508 0.089843-0.53516-0.089844-1.0664-0.44141-1.4648zm-2.9492-24.828c0.37109 0 0.67188 0.30078 0.67188 0.67188 0 0.37109-0.30078 0.67187-0.67188 0.67187-0.37109 0-0.67187-0.30078-0.67187-0.67187 0-0.375 0.30078-0.67188 0.67187-0.67188zm-23.879 41.77h-11.102c1.0781-0.48047 2.2812-0.82812 3.5508-1.0117 0.44141-0.058594 0.91016-0.10938 1.3984-0.12891 0.69922-0.03125 1.3789-0.011719 2.0508 0.050781 1.5 0.14062 2.8906 0.51953 4.1016 1.0898zm-16.68-15.18c-0.75 3.9609-4.8516 6.8711-9.8008 6.8711-4.9492 0-9.0586-2.9219-9.8008-6.8711zm-15.934-2.3711 5.7617-13.852 5.7109 13.852zm-3.4883-23.551c0-0.37109 0.30078-0.67188 0.67188-0.67188 0.37109 0 0.67188 0.30078 0.67188 0.67188 0 0.37109-0.30078 0.67188-0.67188 0.67188-0.37109 0-0.67188-0.30078-0.67188-0.67188zm-34.219 18.59v-4.6602c0-4.1289 3.3594-7.4805 7.4805-7.4805h4.6602v12.141zm62.527 49.762h-37.039c1.2305-1.3203 1.9805-3.0898 1.9805-5.0312v-5.0312h43.762v1.3711c0 4.7812-3.9023 8.6914-8.7031 8.6914zm0.58984-12.441h-36.109c-1.0508 0-1.9102 0.85937-1.9102 1.9102v5.5c0 2.7812-2.2617 5.0312-5.0312 5.0312h-0.51953c-2.7812 0-5.0312-2.2617-5.0312-5.0312v-7.4414-0.03125l0.003906-36.047v-0.03125-0.03125-13.289h23.801c1.1016 0.80859 2.1992 1.3008 3.3086 1.5312l-6.4688 15.57h-1.6914c-0.53125 0-1.0312 0.23047-1.3906 0.62109-0.35156 0.39062-0.53125 0.92188-0.46875 1.4492 0.57812 5.4414 5.8398 9.5508 12.238 9.5508s11.66-4.1016 12.238-9.5508c0.058594-0.53125-0.10938-1.0586-0.46875-1.4492-0.35156-0.39062-0.85938-0.62109-1.3906-0.62109h-2.4805l-6.4492-15.641c2.5703-0.55078 5.1406-1.9883 7.6797-3.4219 2.1797-1.2305 4.4219-2.4883 6.75-3.2891v36.672c0 0.17188 0.03125 0.32031 0.10156 0.46875-1.9102 0.60156-3.6016 1.5508-4.9219 2.7695h-0.03125c-1.3594 0-2.7305 0.62109-3.8516 1.75-1 1-1.6016 2.5-1.6016 4 0 1.3789 0.83984 1.5312 1.1992 1.5312h12.5l0.007812 7.5195zm14.09-9.8984h-25.316c0.14062-0.57812 0.42969-1.1094 0.80078-1.4805 0.39062-0.39062 1.1992-1.0508 2.1797-1.0508h19.34c1.4062-0.011719 2.668 1.1094 2.9961 2.5312zm-10.758-8.3594c-0.78125-0.078125-1.5781-0.10156-2.3906-0.058594-0.57031 0.03125-1.1211 0.078125-1.6289 0.14844-0.10938 0.019531-0.21875 0.039062-0.32812 0.050781l-0.003906-38.234v-0.011719-5.8594c0-0.91016-0.85156-1.6016-1.9805-1.6016l-0.88672 0.003906 5.2305-8.8086 5.2305 8.8086h-0.89062c-1.1289 0-1.9805 0.69141-1.9805 1.6016v44.012c-0.12109-0.023437-0.24219-0.042968-0.37109-0.050781zm19.301-27.953 5.7617 13.852h-11.473zm-0.37109 23.09c-4.9492 0-9.0586-2.9219-9.8008-6.8711h19.602c-0.74219 3.9531-4.8516 6.8711-9.8008 6.8711z"/>
  <path d="m27.199 43.059h4.0312c0.64844 0 1.1914-0.53125 1.1914-1.1914 0-0.64844-0.53125-1.1914-1.1914-1.1914l-4.0312 0.003907c-0.64844 0-1.1914 0.53125-1.1914 1.1914 0.011719 0.66016 0.54297 1.1875 1.1914 1.1875z"/>
  <path d="m27.199 53.66h4.0312c0.64844 0 1.1914-0.53125 1.1914-1.1914 0-0.64844-0.53125-1.1914-1.1914-1.1914l-4.0312 0.003906c-0.64844 0-1.1914 0.53125-1.1914 1.1914 0.011719 0.65625 0.54297 1.1875 1.1914 1.1875z"/>
  <path d="m42.359 61.129h-15.16c-0.64844 0-1.1914 0.53125-1.1914 1.1914 0 0.64844 0.53125 1.1914 1.1914 1.1914h15.148c0.64844 0 1.1914-0.53125 1.1914-1.1914 0-0.66016-0.52734-1.1914-1.1797-1.1914z"/>
  <path d="m42.359 71.73h-15.16c-0.64844 0-1.1914 0.53125-1.1914 1.1914 0 0.64844 0.53125 1.1914 1.1914 1.1914h15.148c0.64844 0 1.1914-0.53125 1.1914-1.1914s-0.52734-1.1914-1.1797-1.1914z"/>
 </g>
<text x="0.0" y="117.5" font-size="5.0" font-weight="bold" font-family="Arbeit Regular, Helvetica, Arial-Unicode, Arial, Sans-serif" fill="#000000">Created by zum rotul</text><text x="0.0" y="122.5" font-size="5.0" font-weight="bold" font-family="Arbeit Regular, Helvetica, Arial-Unicode, Arial, Sans-serif" fill="#000000">from Noun Project</text></svg>